<svg viewBox="0 0 64 64" fill="none" xmlns="http://www.w3.org/2000/svg">
<path d="M 12.75,5 C 11.2265,5 10,6.2488 10,7.8 v 48.4 c 0,1.55008 1.2265,2.8 2.75,2.8 h 38.5 C 52.7724,59 54,57.75008 54,56.2 V 23 L 40,19 36,5 Z" fill="#000" opacity="0.3"/>
<path d="M 12.75,4 C 11.2265,4 10,5.2488 10,6.8 v 48.4 c 0,1.55008 1.2265,2.8 2.75,2.8 h 38.5 C 52.7724,58 54,56.75008 54,55.2 V 22 L 40,18 36,4 Z" fill="#2e2e2e"/>
<path d="M 54,23 36,5 V 20.1875 C 36,21.74675 37.2555,23 38.8125,23 Z" fill="#000" opacity="0.3"/>
<path d="M 54,22 36,4 V 19.1875 C 36,20.74675 37.2555,22 38.8125,22 Z" fill="#3e3e3e"/>
<path d="m 20,30 v 2 h 24 v -2 z" fill="#555"/>
<path d="m 20,35 v 2 h 24 v -2 z" fill="#555"/>
<path d="m 20,40 v 2 h 24 v -2 z" fill="#555"/>
<path d="m 20,45 v 2 h 15 v -2 z" fill="#666"/>
</svg>
